<svg xmlns="http://www.w3.org/2000/svg" xmlns:xlink="http://www.w3.org/1999/xlink" width="215" zoomAndPan="magnify" viewBox="0 0 161.25 161.249997" height="215" preserveAspectRatio="xMidYMid meet" version="1.0"><defs><clipPath id="ef6beaae1b"><path d="M 5 66 L 25.90625 66 L 25.90625 86 L 5 86 Z M 5 66 " clip-rule="nonzero"/></clipPath><clipPath id="21fdf0f0bb"><path d="M 0 60 L 25.90625 60 L 25.90625 86.332031 L 0 86.332031 Z M 0 60 " clip-rule="nonzero"/></clipPath><clipPath id="47fab88f0e"><path d="M 0 56 L 25.90625 56 L 25.90625 86.332031 L 0 86.332031 Z M 0 56 " clip-rule="nonzero"/></clipPath><clipPath id="5892371ee4"><path d="M 0 35.566406 L 5 35.566406 L 5 66 L 0 66 Z M 0 35.566406 " clip-rule="nonzero"/></clipPath><clipPath id="c6e23579f0"><path d="M 0 35.566406 L 1 35.566406 L 1 62 L 0 62 Z M 0 35.566406 " clip-rule="nonzero"/></clipPath><clipPath id="34b08adffd"><path d="M 0 92.996094 L 22.609375 92.996094 L 22.609375 141.148438 L 0 141.148438 Z M 0 92.996094 " clip-rule="nonzero"/></clipPath><clipPath id="747499cc65"><path d="M -1.46875 141.148438 C 11.828125 141.148438 22.609375 130.367188 22.609375 117.074219 C 22.609375 103.777344 11.828125 92.996094 -1.46875 92.996094 C -14.765625 92.996094 -25.542969 103.777344 -25.542969 117.074219 C -25.542969 130.367188 -14.765625 141.148438 -1.46875 141.148438 Z M -1.46875 141.148438 " clip-rule="nonzero"/></clipPath><clipPath id="1d88049f26"><path d="M 0 89.949219 L 25.910156 89.949219 L 25.910156 144.445312 L 0 144.445312 Z M 0 89.949219 " clip-rule="nonzero"/></clipPath></defs><path fill="#00bf63" d="M 22.582031 73.550781 L 13.121094 83.015625 C 14.800781 82.054688 16.367188 80.902344 17.773438 79.597656 L 19.164062 78.203125 C 20.472656 76.785156 21.621094 75.234375 22.582031 73.550781 Z M 22.582031 73.550781 " fill-opacity="1" fill-rule="nonzero"/><g clip-path="url(#ef6beaae1b)"><path fill="#00bf63" d="M 25.398438 66.027344 L 5.597656 85.828125 C 6.144531 85.714844 6.6875 85.585938 7.21875 85.441406 L 25.007812 67.652344 C 25.152344 67.121094 25.28125 66.574219 25.398438 66.027344 Z M 25.398438 66.027344 " fill-opacity="1" fill-rule="nonzero"/></g><g clip-path="url(#21fdf0f0bb)"><path fill="#00bf63" d="M 25.898438 61.003906 C 25.898438 60.945312 25.898438 60.902344 25.898438 60.84375 L 0.398438 86.332031 C 0.457031 86.332031 0.5 86.332031 0.558594 86.332031 C 0.929688 86.332031 1.289062 86.316406 1.664062 86.304688 L 25.871094 62.09375 C 25.886719 61.734375 25.898438 61.363281 25.898438 61.003906 Z M 25.898438 61.003906 " fill-opacity="1" fill-rule="nonzero"/></g><g clip-path="url(#47fab88f0e)"><path fill="#00bf63" d="M 25.511719 56.539062 L -3.894531 85.945312 C -3.535156 86 -3.175781 86.058594 -2.816406 86.117188 L 25.671875 57.601562 C 25.625 57.242188 25.570312 56.882812 25.511719 56.539062 Z M 25.511719 56.539062 " fill-opacity="1" fill-rule="nonzero"/></g><path fill="#00bf63" d="M 24.550781 52.804688 L -7.628906 84.980469 C -7.3125 85.082031 -7.007812 85.183594 -6.695312 85.285156 L 24.835938 53.738281 C 24.75 53.421875 24.652344 53.105469 24.550781 52.804688 Z M 24.550781 52.804688 " fill-opacity="1" fill-rule="nonzero"/><path fill="#00bf63" d="M 23.144531 49.503906 L -10.929688 83.574219 C -10.65625 83.71875 -10.382812 83.847656 -10.097656 83.976562 L 23.542969 50.335938 C 23.414062 50.0625 23.285156 49.773438 23.144531 49.503906 Z M 23.144531 49.503906 " fill-opacity="1" fill-rule="nonzero"/><path fill="#00bf63" d="M 21.390625 46.574219 L -13.859375 81.824219 C -13.613281 81.996094 -13.371094 82.152344 -13.113281 82.324219 L 21.878906 47.304688 C 21.722656 47.0625 21.5625 46.816406 21.390625 46.574219 Z M 21.390625 46.574219 " fill-opacity="1" fill-rule="nonzero"/><path fill="#00bf63" d="M 19.308594 43.960938 L -16.472656 79.742188 C -16.257812 79.941406 -16.042969 80.128906 -15.8125 80.316406 L 19.882812 44.605469 C 19.695312 44.390625 19.511719 44.175781 19.308594 43.960938 Z M 19.308594 43.960938 " fill-opacity="1" fill-rule="nonzero"/><path fill="#00bf63" d="M 16.910156 41.648438 L -18.785156 77.34375 C -18.597656 77.574219 -18.410156 77.789062 -18.210938 78.003906 L 17.570312 42.222656 C 17.355469 42.035156 17.140625 41.835938 16.910156 41.648438 Z M 16.910156 41.648438 " fill-opacity="1" fill-rule="nonzero"/><path fill="#00bf63" d="M 14.210938 39.652344 L -20.777344 74.644531 C -20.621094 74.886719 -20.449219 75.144531 -20.277344 75.390625 L 14.957031 40.15625 C 14.714844 39.984375 14.46875 39.8125 14.210938 39.652344 Z M 14.210938 39.652344 " fill-opacity="1" fill-rule="nonzero"/><path fill="#00bf63" d="M 11.183594 37.988281 L -22.445312 71.613281 C -22.316406 71.902344 -22.1875 72.175781 -22.042969 72.445312 L 12.015625 38.390625 C 11.742188 38.261719 11.46875 38.117188 11.183594 37.988281 Z M 11.183594 37.988281 " fill-opacity="1" fill-rule="nonzero"/><path fill="#00bf63" d="M 7.78125 36.710938 L -23.722656 68.210938 C -23.621094 68.527344 -23.535156 68.84375 -23.421875 69.144531 L 8.710938 37.011719 C 8.398438 36.894531 8.09375 36.796875 7.78125 36.710938 Z M 7.78125 36.710938 " fill-opacity="1" fill-rule="nonzero"/><g clip-path="url(#5892371ee4)"><path fill="#00bf63" d="M 3.902344 35.890625 L -24.542969 64.335938 C -24.5 64.695312 -24.441406 65.050781 -24.382812 65.410156 L 4.980469 36.046875 C 4.621094 35.992188 4.261719 35.933594 3.902344 35.890625 Z M 3.902344 35.890625 " fill-opacity="1" fill-rule="nonzero"/></g><g clip-path="url(#c6e23579f0)"><path fill="#00bf63" d="M 0.570312 35.660156 C 0.183594 35.660156 -0.203125 35.675781 -0.589844 35.691406 L -24.726562 59.824219 C -24.742188 60.214844 -24.757812 60.601562 -24.757812 60.988281 C -24.757812 61.019531 -24.757812 61.046875 -24.757812 61.089844 L 0.65625 35.660156 C 0.628906 35.660156 0.601562 35.660156 0.570312 35.660156 Z M 0.570312 35.660156 " fill-opacity="1" fill-rule="nonzero"/></g><g clip-path="url(#34b08adffd)"><g clip-path="url(#747499cc65)"><path fill="#4285f3" d="M 22.609375 141.148438 L -25.542969 141.148438 L -25.542969 92.996094 L 22.609375 92.996094 Z M 22.609375 141.148438 " fill-opacity="1" fill-rule="nonzero"/></g></g><g clip-path="url(#1d88049f26)"><path fill="#a6a6a6" d="M -1.464844 144.445312 C 13.640625 144.445312 25.910156 132.171875 25.910156 117.070312 C 25.910156 101.964844 13.640625 89.691406 -1.464844 89.691406 C -16.570312 89.691406 -28.839844 101.964844 -28.839844 117.070312 C -28.839844 132.171875 -16.570312 144.445312 -1.464844 144.445312 Z M -1.464844 143.253906 C -15.941406 143.253906 -27.652344 131.546875 -27.652344 117.070312 C -27.652344 102.589844 -15.941406 90.882812 -1.464844 90.882812 C 13.011719 90.882812 24.722656 102.589844 24.722656 117.070312 C 24.722656 131.546875 13.011719 143.253906 -1.464844 143.253906 Z M -1.464844 143.253906 " fill-opacity="1" fill-rule="nonzero"/></g></svg>